<?xml version="1.0" standalone="no"?>
<!DOCTYPE svg PUBLIC "-//W3C//DTD SVG 20010904//EN"
 "http://www.w3.org/TR/2001/REC-SVG-20010904/DTD/svg10.dtd">
<svg version="1.0" xmlns="http://www.w3.org/2000/svg"
 width="618.000000pt" height="618.000000pt" viewBox="0 0 618.000000 618.000000"
 preserveAspectRatio="xMidYMid meet">
<metadata>
Created by potrace 1.14, written by Peter Selinger 2001-2017
</metadata>
<g transform="translate(0.000000,618.000000) scale(0.100000,-0.100000)"
fill="#000000" stroke="none">
<path d="M956 5947 l-31 -34 -1 -349 -1 -349 -115 -5 c-122 -5 -138 -11 -162
-59 -12 -23 -18 -445 -16 -1049 l0 -52 -50 25 c-126 64 -199 170 -216 312 -9
79 -18 99 -53 118 -44 22 -82 19 -120 -13 -31 -25 -33 -31 -33 -92 0 -69 24
-181 48 -217 8 -12 14 -27 14 -33 0 -22 100 -144 152 -186 90 -75 224 -128
340 -136 20 -1 35 -4 34 -8 -2 -3 -20 -58 -40 -122 -21 -65 -43 -118 -49 -119
-7 0 -122 -1 -256 -2 l-243 -3 -29 -32 -29 -32 0 -1493 c0 -1485 0 -1494 20
-1520 11 -14 35 -29 53 -33 17 -4 159 -7 315 -6 241 0 287 3 307 16 32 21 45
47 51 104 15 162 66 274 169 377 117 117 250 168 420 161 281 -11 503 -232
530 -525 6 -72 16 -95 50 -117 21 -14 127 -16 982 -16 1045 0 1108 0 1139 14
33 15 44 44 55 134 35 310 288 530 589 511 148 -9 273 -68 373 -177 93 -100
138 -204 153 -350 7 -70 30 -114 65 -125 29 -9 666 -10 706 -1 65 15 63 -11
63 683 0 549 -2 631 -15 651 -12 17 -112 53 -444 162 l-429 140 -31 78 c-18
42 -127 316 -243 607 -116 292 -225 550 -241 575 -60 88 -141 150 -250 192
-43 17 -81 21 -227 23 -96 2 -182 4 -191 4 -11 1 -26 36 -53 122 -21 66 -36
122 -34 125 3 2 36 12 74 22 176 47 311 157 389 318 40 81 65 208 54 269 -12
69 -74 102 -142 76 -35 -14 -53 -49 -61 -119 -15 -144 -98 -263 -223 -322 -62
-29 -68 -30 -210 -36 l-123 -5 0 545 c0 301 0 549 -1 554 -2 16 -34 62 -48 69
-9 4 -59 10 -111 13 l-94 5 -1 352 0 353 -28 27 -27 28 -1222 2 -1221 3 -31
-33z m2322 -453 l2 -280 -1072 0 -1073 1 -2 275 c-1 151 2 277 7 280 4 3 487
5 1072 5 l1063 0 3 -281z m-1467 -504 c1 -21 1 -888 0 -927 l-1 -32 -485 0
c-445 1 -485 2 -486 17 0 10 -1 226 -1 481 -1 311 3 465 10 470 5 3 224 6 486
6 416 0 476 -2 477 -15z m542 -457 c-1 -263 -2 -483 -2 -490 -1 -8 -48 -11
-166 -12 l-165 -1 0 490 0 490 168 0 167 0 -2 -477z m1172 468 c7 -1 10 -165
9 -478 -1 -263 -2 -481 -3 -485 0 -4 -218 -6 -483 -5 l-483 2 -3 475 c-1 261
0 480 2 485 2 7 169 9 477 9 261 -1 479 -2 484 -3z m-1913 -1295 c22 -65 37
-120 34 -123 -7 -7 -745 -7 -752 0 -11 11 69 236 86 240 8 1 145 3 304 2 l290
0 38 -119z m1318 117 c0 -11 -73 -229 -79 -235 -5 -6 -863 -14 -958 -9 -19 1
-27 16 -57 109 -19 59 -38 115 -41 124 -6 16 31 17 564 16 314 -1 571 -3 571
-5z m867 -119 l40 -124 -56 -1 c-214 -3 -702 -1 -706 3 -3 2 13 59 36 125 l40
120 303 1 303 0 40 -124z m648 -360 c52 -24 135 -103 135 -129 0 -9 -77 -12
-302 -14 -334 -2 -348 -5 -368 -66 -5 -18 -9 -231 -8 -525 l0 -495 32 -30 32
-30 530 -2 c291 0 534 -2 541 -2 6 -1 19 -21 28 -46 10 -24 26 -51 36 -61 15
-14 470 -170 757 -260 l82 -26 0 -321 c0 -177 1 -396 1 -487 0 -91 0 -170 -1
-176 0 -8 -63 -11 -217 -10 l-217 1 -18 75 c-9 41 -39 118 -65 170 -40 80 -63
110 -143 191 -81 81 -109 102 -190 142 -298 147 -646 93 -875 -137 -105 -105
-176 -231 -210 -371 l-17 -71 -908 1 c-500 0 -911 3 -915 7 -3 3 -9 21 -12 40
-20 131 -119 310 -224 406 -156 141 -319 205 -524 205 -116 1 -220 -21 -315
-64 -129 -60 -261 -178 -334 -298 -41 -68 -94 -204 -98 -251 -1 -17 -7 -35
-13 -39 -5 -5 -83 -8 -172 -8 -140 0 -162 2 -165 16 -3 14 -2 2682 1 2689 0 1
919 2 2042 2 l2040 0 54 -26z m365 -700 c75 -187 139 -350 142 -362 6 -22 4
-22 -110 -22 -539 -2 -724 -1 -728 3 -3 3 -7 598 -5 700 l1 27 282 -2 282 -3
136 -341z"/>
<path d="M995 3200 c-251 -5 -277 -11 -291 -65 -3 -14 -7 -240 -8 -502 -2
-510 -1 -522 47 -559 24 -20 41 -20 584 -19 591 1 589 1 615 48 9 16 12 148
11 524 0 455 -2 505 -17 528 -9 14 -28 30 -41 35 -29 11 -573 17 -900 10z
m713 -210 l42 0 0 -365 0 -365 -92 0 c-220 -1 -590 -1 -669 0 l-86 0 0 365 -1
364 57 3 c44 2 421 2 749 -2z"/>
<path d="M2670 3200 c-317 -5 -338 -8 -360 -50 -6 -12 -11 -201 -12 -522 -1
-403 1 -507 12 -524 32 -51 24 -51 627 -50 l562 1 22 24 c13 13 25 43 28 65 4
23 6 256 6 519 l-1 478 -27 27 -27 27 -263 5 c-144 3 -399 3 -567 0z m638
-210 l42 0 0 -365 0 -365 -424 0 -423 0 0 365 c0 318 2 364 15 367 12 2 462 1
790 -2z"/>
<path d="M1368 984 c-2 -1 -23 -5 -47 -8 -151 -20 -309 -168 -349 -328 -29
-111 -3 -265 61 -357 95 -138 223 -203 392 -198 81 2 99 7 166 39 97 45 173
120 220 214 33 67 34 72 34 189 0 114 -2 123 -32 187 -73 154 -215 251 -380
261 -35 2 -64 3 -65 1z m144 -230 c115 -59 167 -210 110 -319 -75 -147 -256
-183 -375 -76 -133 120 -95 332 74 404 43 19 147 14 191 -9z"/>
<path d="M4621 967 c-130 -38 -250 -153 -296 -283 -20 -58 -24 -85 -22 -164 3
-86 6 -102 39 -170 139 -287 499 -349 724 -125 237 236 130 640 -197 744 -59
19 -181 18 -248 -2z m190 -197 c139 -38 217 -208 153 -334 -30 -59 -63 -91
-123 -118 -153 -70 -334 49 -332 218 2 161 149 275 302 234z"/>
</g>
</svg>
